# xmcd CD database file
#
# Track frame offsets:
#	150
#	5027
#	22082
#	39602
#	55174
#	70766
#	87392
#	105117
#	111515
#	132145
#	145168
#	160424
#	171452
#	185290
#	202329
#
# Disc length: 2836 seconds
#
# Revision: 0
# Processed by: cddbd v1.5.1PL2 Copyright (c) Steve Scherf et al.
# Submitted via: CDex 1.51
#
DISCID=d80b120f
DTITLE=Room Eleven - Six White Russians and a Pink Pussycat
DYEAR=2006
DGENRE=Jazz
TTITLE0=All Right
TTITLE1=One of These Days
TTITLE2=Sad Song
TTITLE3=Faith
TTITLE4=Could That Be You?
TTITLE5=Flavour
TTITLE6=Pressing
TTITLE7=It's Raining
TTITLE8=You Made Me See It
TTITLE9=Greenest Grass
TTITLE10=Come Closer
TTITLE11=Somedays
TTITLE12=Tried to Be
TTITLE13=Listen
TTITLE14=I Wanna Be Your ...
EXTD=YEAR: 2006
EXTT0=
EXTT1=
EXTT2=
EXTT3=
EXTT4=
EXTT5=
EXTT6=
EXTT7=
EXTT8=
EXTT9=
EXTT10=
EXTT11=
EXTT12=
EXTT13=
EXTT14=
PLAYORDER=
